<?xml version="1.0" encoding="iso-8859-1"?>
<!-- Uploaded to: SVG Repo, www.svgrepo.com, Generator: SVG Repo Mixer Tools -->
<svg version="1.1" id="Layer_1" xmlns="http://www.w3.org/2000/svg" xmlns:xlink="http://www.w3.org/1999/xlink" 
	 viewBox="0 0 511.999 511.999" xml:space="preserve">
<circle style="fill:#D7F3FF;" cx="256.003" cy="256.003" r="249.99"/>
<polygon style="fill:#F2F2F2;" points="317.035,160.117 295.388,160.117 216.62,160.117 194.974,160.117 211.726,153.178 
	244.327,139.698 256.004,134.863 267.681,139.698 300.271,153.178 "/>
<g>
	<path style="fill:#CCCCCC;" d="M487.391,350.725h0.012c-11.761,28.717-28.717,54.753-49.702,76.952
		c-45.565-24.953-110.119-40.515-181.696-40.515c-71.589,0-136.143,15.561-181.708,40.515
		c-20.985-22.199-37.941-48.235-49.702-76.94l0.024-0.012h19.734h21.646h31.868h26.457h49.305h57.723h49.305h57.723h49.305h26.457
		h31.868h21.646L487.391,350.725L487.391,350.725z"/>
	<rect x="446.009" y="333.893" style="fill:#CCCCCC;" width="21.646" height="16.836"/>
</g>
<polygon style="fill:#FFFFFF;" points="467.656,237.082 467.656,333.889 446.01,333.889 446.01,292.4 446.01,274.361 
	446.01,238.284 446.01,237.082 "/>
<polygon style="fill:#CCCCCC;" points="467.656,219.043 467.656,237.082 446.01,237.082 414.142,237.082 317.335,237.082 
	301.702,237.082 283.254,237.082 283.254,219.043 317.035,219.043 "/>
<polygon style="fill:#F2F2F2;" points="467.656,202.207 467.656,219.043 317.035,219.043 317.035,202.207 368.372,202.207 
	403.644,202.207 418.688,202.207 453.959,202.207 "/>
<path style="fill:#FFFFFF;" d="M453.959,202.207h-35.271c0-9.741,7.889-17.642,17.63-17.642S453.959,192.466,453.959,202.207z"/>
<polygon style="fill:#F2F2F2;" points="446.01,333.889 446.01,350.725 414.142,350.725 414.142,333.889 414.142,292.4 446.01,292.4 
	"/>
<rect x="414.141" y="274.366" style="fill:#CCCCCC;" width="31.868" height="18.039"/>
<polygon style="fill:#F2F2F2;" points="446.01,238.284 446.01,274.361 414.142,274.361 414.142,237.082 446.01,237.082 "/>
<path style="fill:#9AD14B;" d="M437.7,427.677c-45.565,48.223-110.119,78.311-181.696,78.311
	c-71.589,0-136.143-30.088-181.708-78.311c45.565-24.953,110.119-40.515,181.708-40.515
	C327.581,387.162,392.135,402.724,437.7,427.677z"/>
<rect x="387.684" y="333.893" style="fill:#CCCCCC;" width="26.457" height="16.836"/>
<path style="fill:#F2F2F2;" d="M414.142,292.4v41.489h-26.457v-55.919c0-13.613-11.04-24.653-24.653-24.653
	c-13.625,0-24.653,11.04-24.653,24.653v55.919h-21.045v-96.807h96.807v37.28V292.4z"/>
<path style="fill:#FFFFFF;" d="M403.644,202.207h-35.271c0-9.741,7.889-17.642,17.63-17.642S403.644,192.466,403.644,202.207z"/>
<polygon style="fill:#CCCCCC;" points="338.38,333.889 338.38,350.725 280.657,350.725 280.657,333.889 301.702,333.889 
	317.335,333.889 "/>
<rect x="301.701" y="237.087" style="fill:#FFFFFF;" width="15.633" height="96.807"/>
<polygon style="fill:#F2F2F2;" points="317.035,202.207 317.035,219.043 283.254,219.043 228.742,219.043 194.974,219.043 
	194.974,202.207 216.62,202.207 295.388,202.207 "/>
<rect x="295.387" y="160.122" style="fill:#FFFFFF;" width="21.646" height="42.09"/>
<path style="fill:#F2F2F2;" d="M301.702,237.082v96.807h-21.045v-55.919c0-13.613-11.04-24.653-24.653-24.653
	c-13.625,0-24.653,11.04-24.653,24.653v55.919h-21.045v-96.807h18.435h54.512H301.702z"/>
<path style="fill:#FFFFFF;" d="M291.708,128.261c8.959,3.812,13.12,14.178,9.296,23.137l-0.734,1.78l-32.59-13.481l0.878-2.141
	C272.383,128.598,282.749,124.437,291.708,128.261z"/>
<g>
	<rect x="216.619" y="160.122" style="fill:#CCCCCC;" width="78.768" height="42.09"/>
	<rect x="228.741" y="219.048" style="fill:#CCCCCC;" width="54.512" height="18.039"/>
</g>
<path style="fill:#FFFFFF;" d="M243.437,137.557l0.89,2.141l-32.602,13.481l-0.734-1.78c-3.824-8.959,0.337-19.325,9.296-23.137
	C229.247,124.437,239.613,128.598,243.437,137.557z"/>
<g>
	<polygon style="fill:#CCCCCC;" points="231.352,333.889 231.352,350.725 173.628,350.725 173.628,333.889 194.673,333.889 
		210.307,333.889 	"/>
	<polygon style="fill:#CCCCCC;" points="228.742,219.043 228.742,237.082 210.307,237.082 194.673,237.082 97.866,237.082 
		65.998,237.082 44.352,237.082 44.352,219.043 194.974,219.043 	"/>
</g>
<g>
	<rect x="194.973" y="160.122" style="fill:#FFFFFF;" width="21.646" height="42.09"/>
	<rect x="194.672" y="237.087" style="fill:#FFFFFF;" width="15.633" height="96.807"/>
</g>
<g>
	<polygon style="fill:#F2F2F2;" points="194.974,202.207 194.974,219.043 44.352,219.043 44.352,202.207 58.037,202.207 
		93.321,202.207 108.353,202.207 143.636,202.207 	"/>
	<path style="fill:#F2F2F2;" d="M194.673,237.082v96.807h-21.045v-55.919c0-13.613-11.04-24.653-24.653-24.653
		c-13.625,0-24.653,11.04-24.653,24.653v55.919H97.866V292.4v-18.039v-36.077v-1.203H194.673z"/>
</g>
<path style="fill:#FFFFFF;" d="M143.636,202.207h-35.283c0-9.741,7.901-17.642,17.642-17.642S143.636,192.466,143.636,202.207z"/>
<g>
	<rect x="97.865" y="333.893" style="fill:#CCCCCC;" width="26.457" height="16.836"/>
	<rect x="65.998" y="274.366" style="fill:#CCCCCC;" width="31.868" height="18.039"/>
</g>
<polygon style="fill:#F2F2F2;" points="97.866,238.284 97.866,274.361 65.998,274.361 65.998,237.082 97.866,237.082 "/>
<path style="fill:#FFFFFF;" d="M93.321,202.207H58.037c0-9.741,7.901-17.642,17.642-17.642S93.321,192.466,93.321,202.207z"/>
<rect x="44.352" y="333.893" style="fill:#CCCCCC;" width="21.646" height="16.836"/>
<polygon style="fill:#FFFFFF;" points="65.998,292.4 65.998,333.889 44.352,333.889 44.352,237.082 65.998,237.082 65.998,274.361 
	"/>
<path style="fill:#333333;" d="M255.999,0C114.841,0,0,114.842,0,255.999s114.841,255.999,255.999,255.999
	s255.999-114.842,255.999-255.999S397.159,0,255.999,0z M255.999,12.026c134.528,0,243.974,109.446,243.974,243.974
	c0,31.281-5.925,61.204-16.699,88.712h-9.609V225.056h3.006c3.321,0,6.013-2.693,6.013-6.013s-2.691-6.013-6.013-6.013h-3.006
	v-10.823c0-3.32-2.691-6.013-6.013-6.013h-8.484c-2.671-10.133-11.886-17.638-22.845-17.638c-10.96,0-20.177,7.504-22.846,17.638
	h-4.625c-2.671-10.133-11.886-17.638-22.845-17.638c-10.96,0-20.177,7.504-22.846,17.638h-40.114v-36.077
	c0-2.433-1.466-4.626-3.714-5.556l-11.516-4.765c1.092-4.685,0.744-9.58-1.086-14.135c-2.356-5.861-6.852-10.455-12.662-12.935
	c-5.81-2.48-12.236-2.547-18.1-0.194c-4.721,1.896-8.596,5.199-11.23,9.44l-6.439-2.665c-1.473-0.61-3.127-0.61-4.597,0
	l-6.439,2.664c-2.634-4.241-6.51-7.543-11.23-9.44c-5.863-2.356-12.291-2.286-18.101,0.194c-5.811,2.48-10.307,7.074-12.662,12.935
	c-1.83,4.557-2.177,9.451-1.085,14.136l-11.515,4.765c-2.249,0.93-3.714,3.123-3.714,5.556v36.077h-40.118
	c-2.671-10.133-11.886-17.638-22.846-17.638s-20.176,7.504-22.846,17.638h-4.625c-2.671-10.133-11.886-17.638-22.846-17.638
	s-20.177,7.504-22.846,17.638h-8.484c-3.32,0-6.013,2.693-6.013,6.013v10.823h-3.006c-3.32,0-6.013,2.693-6.013,6.013
	s2.693,6.013,6.013,6.013h3.006v119.656h-9.609c-10.775-27.509-16.7-57.43-16.7-88.712
	C12.026,121.472,121.472,12.026,255.999,12.026z M256.004,381.15c-68.431,0-132.235,13.822-180.354,38.988
	c-17.046-18.713-31.225-40.08-41.839-63.399H478.19c-10.615,23.32-24.793,44.689-41.841,63.402
	C388.229,394.972,324.43,381.15,256.004,381.15z M188.956,208.22v4.81H50.36v-4.81H188.956z M65.748,196.194
	c2.041-3.358,5.722-5.612,9.931-5.612c4.208,0,7.889,2.255,9.93,5.612H65.748z M116.066,196.194c2.041-3.358,5.722-5.612,9.93-5.612
	c4.208,0,7.89,2.255,9.931,5.612H116.066z M216.429,140.145c1.157-2.881,3.368-5.139,6.225-6.358
	c2.856-1.218,6.015-1.253,8.897-0.095c1.672,0.671,3.123,1.705,4.293,3.006l-20.23,8.371
	C215.528,143.408,215.791,141.734,216.429,140.145z M255.999,141.372l30.774,12.734h-61.546L255.999,141.372z M289.372,166.13
	v30.064h-66.743V166.13H289.372z M301.398,166.13h9.621v30.064h-9.621V166.13L301.398,166.13z M296.385,145.068l-20.23-8.371
	c1.171-1.3,2.623-2.334,4.293-3.006c2.884-1.157,6.042-1.122,8.895,0.095c2.856,1.219,5.066,3.477,6.224,6.358
	C296.208,141.734,296.471,143.406,296.385,145.068z M200.982,166.13h9.621v30.064h-9.621V166.13z M311.018,208.22v4.81H200.983
	v-4.81H311.018z M461.64,208.22v4.81H323.044v-4.81H461.64z M376.075,196.194c2.041-3.358,5.723-5.612,9.931-5.612
	c4.208,0,7.889,2.255,9.93,5.612H376.075z M426.391,196.194c2.041-3.358,5.723-5.612,9.931-5.612c4.208,0,7.889,2.255,9.93,5.612
	H426.391z M393.695,344.712v-4.81h14.431v4.81H393.695z M286.666,344.712v-4.81h45.698v4.81H286.666z M179.636,344.712v-4.81h45.698
	v4.81H179.636z M103.874,344.712v-4.81h14.431v4.81H103.874z M50.36,344.712v-4.81h9.621v4.81H50.36z M50.36,243.095h9.621v84.781
	H50.36V243.095z M295.685,243.095v84.781h-9.019v-49.907c0-16.909-13.756-30.666-30.666-30.666l0,0
	c-16.909,0-30.666,13.756-30.666,30.666v49.907h-9.019v-84.781H295.685z M277.245,225.056v6.013h-42.49v-6.013H277.245z
	 M408.126,243.095v84.781h-14.431v-49.907c0-16.909-13.756-30.666-30.666-30.666s-30.666,13.756-30.666,30.666v49.907h-9.019
	v-84.781H408.126z M461.64,327.876h-9.621v-84.781h9.621V327.876z M420.151,280.374h19.842v6.013h-19.842V280.374z M439.994,268.349
	h-19.842v-25.254h19.842V268.349z M311.319,327.876h-3.608v-84.781h3.608V327.876z M204.289,327.876h-3.608v-84.781h3.608V327.876z
	 M188.655,327.876h-9.019v-49.907c0-16.909-13.756-30.666-30.666-30.666l0,0c-16.909,0-30.666,13.756-30.666,30.666v49.907h-14.431
	v-84.781h84.781V327.876z M72.006,280.374h19.842v6.013H72.006V280.374z M91.849,268.349H72.006v-25.254h19.842V268.349z
	 M72.006,298.413h19.842v46.299H72.006V298.413z M130.331,277.969c0-10.278,8.363-18.64,18.64-18.64s18.64,8.361,18.64,18.64v66.743
	h-37.28V277.969z M237.36,277.969c0-10.278,8.363-18.64,18.64-18.64c10.277,0,18.64,8.361,18.64,18.64v66.743h-37.28V277.969z
	 M344.389,277.969c0-10.278,8.361-18.64,18.64-18.64s18.64,8.361,18.64,18.64v66.743h-37.28V277.969z M420.151,298.413h19.842
	v46.299h-19.842V298.413z M452.019,339.901h9.621v4.81h-9.621V339.901z M461.64,231.069H289.271v-6.013H461.64V231.069z
	 M222.729,225.056v6.013H50.36v-6.013H222.729z M84.352,429.203c45.61-22.952,107.585-36.027,171.652-36.027
	c64.062,0,126.034,13.076,171.643,36.029c-44.114,43.721-104.779,70.77-171.648,70.77
	C189.131,499.974,128.466,472.925,84.352,429.203z"/>
</svg>